<?xml version="1.0" standalone="no"?>
<!DOCTYPE svg PUBLIC "-//W3C//DTD SVG 20010904//EN"
 "http://www.w3.org/TR/2001/REC-SVG-20010904/DTD/svg10.dtd">
<svg version="1.0" xmlns="http://www.w3.org/2000/svg"
 width="1280.000000pt" height="1280.000000pt" viewBox="0 0 1280.000000 1280.000000"
 preserveAspectRatio="xMidYMid meet">
<g transform="translate(0.000000,1280.000000) scale(0.100000,-0.100000)"
fill="#000000" stroke="none">
<path d="M5937 11992 l-197 -197 0 -308 0 -307 -22 -10 c-13 -5 -66 -16 -118
-25 -157 -27 -448 -102 -606 -156 -417 -144 -731 -320 -1024 -574 -172 -150
-599 -591 -692 -716 -312 -416 -467 -873 -485 -1429 -17 -538 96 -969 356
-1361 101 -151 182 -248 327 -389 456 -444 1093 -741 2078 -969 93 -22 173
-45 177 -53 12 -18 11 -2285 0 -2293 -12 -7 -163 58 -253 108 -221 124 -424
339 -542 574 -86 174 -139 348 -175 583 -12 74 -24 152 -27 173 l-7 37 -896 0
-895 0 -195 -194 -194 -194 7 -84 c29 -357 100 -698 201 -975 47 -127 178
-393 250 -508 486 -772 1318 -1225 2533 -1379 100 -13 186 -27 190 -30 4 -4 9
-208 12 -454 l5 -446 75 -18 c106 -24 740 -27 798 -3 49 21 346 318 367 367
12 30 15 85 15 297 0 232 2 261 18 280 14 17 45 26 167 47 649 109 1204 354
1687 746 146 118 459 432 572 573 184 230 343 500 441 749 230 588 256 1380
63 1966 -175 534 -548 946 -1139 1259 -367 194 -904 369 -1584 516 -115 25
-213 49 -217 53 -10 10 -6 2038 4 2048 15 14 85 -16 173 -75 264 -174 418
-439 484 -833 l16 -102 84 -18 c79 -17 139 -18 891 -16 l807 3 40 28 c53 37
304 292 332 337 26 44 27 86 2 255 -62 419 -206 816 -404 1112 -447 669 -1186
1061 -2246 1193 -86 10 -164 22 -173 25 -15 6 -17 52 -20 483 -2 262 -7 483
-11 490 -6 9 -104 12 -430 12 l-422 0 -198 -198z m-203 -2598 c3 -9 6 -420 6
-915 0 -878 0 -899 -19 -899 -33 0 -216 98 -298 159 -155 116 -282 276 -342
431 -127 329 -74 836 108 1018 76 76 224 146 415 197 109 29 122 30 130 9z
m1394 -4238 c115 -44 199 -87 297 -150 303 -198 435 -471 435 -901 0 -284 -46
-514 -142 -712 l-40 -82 -92 -45 c-50 -24 -141 -60 -203 -80 -125 -40 -340
-83 -366 -73 -16 6 -17 81 -17 1022 0 682 3 1023 10 1036 14 25 16 25 118 -15z"/>
</g>
</svg>
